<?xml version="1.0" standalone="no"?>
<!DOCTYPE svg PUBLIC "-//W3C//DTD SVG 20010904//EN"
 "http://www.w3.org/TR/2001/REC-SVG-20010904/DTD/svg10.dtd">
<svg version="1.0" xmlns="http://www.w3.org/2000/svg"
 width="464.000000pt" height="464.000000pt" viewBox="0 0 464.000000 464.000000"
 preserveAspectRatio="xMidYMid meet">
<metadata>
Created by potrace 1.14, written by Peter Selinger 2001-2017
</metadata>
<g transform="translate(0.000000,464.000000) scale(0.100000,-0.100000)"
fill="#000000" stroke="none">
<path d="M1 2320 l0 -830 390 0 389 0 0 830 0 830 -390 0 -389 0 0 -830z"/>
<path d="M1277 3062 c-16 -3 -17 -62 -17 -788 l0 -784 225 0 225 0 2 447 3
448 108 0 c101 1 107 0 107 -20 1 -11 2 -112 3 -225 l2 -205 113 0 112 0 0
225 0 225 104 0 c58 0 108 -3 111 -7 4 -4 7 -205 8 -448 l0 -440 226 0 226 0
-1 783 c-1 430 -2 784 -3 787 -1 4 -335 5 -427 1 -21 -1 -22 -5 -20 -111 1
-91 -2 -110 -14 -111 -8 0 -60 -1 -114 -2 l-100 -2 1 -111 0 -112 -111 0 -111
0 0 111 0 112 -110 1 -110 1 -5 114 -5 114 -206 0 c-113 0 -213 -1 -222 -3z"/>
<path d="M3077 3062 c-16 -3 -17 -61 -17 -788 l0 -784 225 0 225 0 0 335 0
335 450 0 450 0 0 115 0 114 -412 0 c-227 0 -430 0 -451 1 l-37 0 2 222 3 223
560 0 560 0 0 108 c0 60 -2 111 -5 115 -5 7 -1519 10 -1553 4z"/>
</g>
</svg>
